<svg width="98" height="13" viewBox="0 0 98 13" fill="none" xmlns="http://www.w3.org/2000/svg">
<path d="M3.47201 2.976C3.47201 3.31733 3.56801 3.632 3.76001 3.92C3.95201 4.208 4.19201 4.464 4.48001 4.688C4.76801 4.912 5.16268 5.18933 5.66401 5.52C6.25068 5.904 6.72001 6.24533 7.07201 6.544C7.42401 6.832 7.72268 7.184 7.96801 7.6C8.22401 8.00533 8.35201 8.464 8.35201 8.976C8.35201 9.54133 8.19735 10.0747 7.88801 10.576C7.57868 11.0667 7.11468 11.4667 6.49601 11.776C5.87735 12.0853 5.13068 12.24 4.25601 12.24C2.37868 12.24 1.04535 11.4933 0.256012 10L2.06401 8.608C2.57601 9.664 3.15201 10.688 3.79201 11.68H3.80801C4.11735 11.68 4.40535 11.6 4.67201 11.44C4.93868 11.2693 5.15201 11.0507 5.31201 10.784C5.47201 10.5173 5.55201 10.2347 5.55201 9.936C5.55201 9.616 5.45601 9.32267 5.26401 9.056C5.08268 8.77867 4.85335 8.53867 4.57601 8.336C4.29868 8.12267 3.92001 7.86667 3.44001 7.568C2.86401 7.20533 2.40001 6.88533 2.04801 6.608C1.69601 6.33067 1.39201 5.99467 1.13601 5.6C0.890679 5.19467 0.768012 4.73067 0.768012 4.208C0.768012 3.62133 0.933345 3.088 1.26401 2.608C1.60535 2.11733 2.08535 1.73333 2.70401 1.456C3.33335 1.17867 4.06935 1.04 4.91201 1.04C5.73335 1.04 6.40535 1.17333 6.92801 1.44C7.46135 1.696 7.94135 2.064 8.36801 2.544L6.68801 4.24C6.12268 3.30133 5.55201 2.42133 4.97601 1.6C4.49601 1.6 4.12268 1.73333 3.85601 2C3.60001 2.256 3.47201 2.58133 3.47201 2.976Z" fill="#FEFEFE"/>
<path d="M21.62 11.536V12H18.196V11.536L18.788 11.488V8.112C18.788 7.64267 18.6653 7.28 18.42 7.024C18.1853 6.75733 17.8547 6.61867 17.428 6.608L16.836 7.2V11.488L17.412 11.536V12H13.988V11.536L14.58 11.488V8.112C14.58 7.64267 14.4573 7.28 14.212 7.024C13.9773 6.768 13.6467 6.63467 13.22 6.624L12.692 7.152L12.628 11.488L13.22 11.536V12H9.78001V11.536L10.372 11.488L10.324 5.76L9.71601 5.904L9.55601 5.424L12.084 4.64L12.644 6.432L13.972 4.528C14.7933 4.528 15.428 4.69333 15.876 5.024C16.3347 5.35467 16.628 5.86667 16.756 6.56L18.18 4.512C19.1613 4.512 19.8813 4.752 20.34 5.232C20.8093 5.712 21.044 6.45867 21.044 7.472V11.488L21.62 11.536Z" fill="#FEFEFE"/>
<path d="M29.4011 11.168L27.0491 12.272C26.7611 12.0693 26.5638 11.792 26.4571 11.44C26.0731 11.6747 25.6838 11.8667 25.2891 12.016C24.9051 12.1653 24.5691 12.24 24.2811 12.24C23.8438 12.24 23.4865 12.0853 23.2091 11.776C22.9318 11.4667 22.7931 11.072 22.7931 10.592C22.7931 10.3787 22.8145 10.1493 22.8571 9.904C22.9105 9.648 22.9745 9.44533 23.0491 9.296L26.4411 8.752L26.4731 8.288C26.4945 7.808 26.3931 7.43467 26.1691 7.168C25.9451 6.89067 25.5825 6.752 25.0811 6.752C24.8571 6.752 24.6225 6.77867 24.3771 6.832C24.1318 6.87467 23.9238 6.93333 23.7531 7.008L23.4971 7.552L23.0651 7.392L23.8011 5.088C24.6225 4.736 25.4011 4.56 26.1371 4.56C26.8945 4.56 27.5131 4.76267 27.9931 5.168C28.4731 5.56267 28.7131 6.18667 28.7131 7.04L28.6971 7.36L28.5371 9.52L28.5051 10.096C28.5051 10.288 28.5211 10.4427 28.5531 10.56C28.5851 10.6667 28.6385 10.7787 28.7131 10.896L29.2091 10.704L29.4011 11.168ZM25.7691 11.088C25.9398 11.088 26.1371 11.024 26.3611 10.896L26.3451 10.56L26.3611 10.208L26.4091 9.296L25.1771 9.584C25.1345 9.72267 25.1131 9.90933 25.1131 10.144C25.1131 10.464 25.1771 10.704 25.3051 10.864C25.4331 11.0133 25.5878 11.088 25.7691 11.088Z" fill="#FEFEFE"/>
<path d="M33.4326 6.992L33.3686 11.488L34.7926 11.536V12H30.5206V11.536L31.1126 11.488L31.0646 5.76L30.4566 5.904L30.2966 5.424L32.8246 4.64L33.3686 6.352C33.7206 5.63733 34.1046 5.08267 34.5206 4.688C34.7553 4.60267 35.038 4.56 35.3686 4.56C35.8166 4.56 36.238 4.64 36.6326 4.8L36.1206 6.88C35.8113 6.816 35.4166 6.75733 34.9366 6.704C34.4566 6.65067 34.062 6.61333 33.7526 6.592L33.4326 6.992Z" fill="#FEFEFE"/>
<path d="M42.5143 10.736L40.5623 12.144C39.7729 12.144 39.1969 11.952 38.8343 11.568C38.4823 11.1733 38.3063 10.544 38.3063 9.68V5.424H37.2343V4.912C37.6823 4.66667 38.1676 4.32 38.6903 3.872C39.2236 3.41333 39.7089 2.93333 40.1463 2.432L40.6743 2.592L40.5943 4.8H42.4663V5.472L40.5623 5.44V9.12C40.5623 9.632 40.6583 10.0053 40.8503 10.24C41.0529 10.4747 41.3196 10.592 41.6503 10.592L42.2423 10.256L42.5143 10.736Z" fill="#FEFEFE"/>
<path d="M57.1833 6.448V7.008L56.4633 7.024V12H55.9513L54.7833 11.2C54.3673 11.5307 53.9139 11.7867 53.4233 11.968C52.9433 12.1493 52.4526 12.24 51.9513 12.24C51.0126 12.24 50.1859 12.0267 49.4713 11.6C48.7566 11.1627 48.2019 10.5547 47.8073 9.776C47.4126 8.98667 47.2153 8.07467 47.2153 7.04C47.2153 6.05867 47.3913 5.13067 47.7433 4.256C48.1059 3.38133 48.5646 2.68267 49.1193 2.16C49.6633 1.808 50.2446 1.54133 50.8633 1.36C51.4926 1.168 52.1113 1.072 52.7193 1.072C53.5299 1.072 54.2713 1.248 54.9433 1.6C55.6259 1.94133 56.1646 2.42133 56.5593 3.04L54.5913 4.688C54.0046 3.696 53.3379 2.64 52.5913 1.52C51.8553 1.84 51.2526 2.432 50.7833 3.296C50.3139 4.16 50.0793 5.14133 50.0793 6.24C50.0793 7.59467 50.3833 8.66133 50.9913 9.44C51.6099 10.208 52.4526 10.592 53.5193 10.592C53.6899 10.592 53.8179 10.5867 53.9033 10.576V7.024L53.1193 7.008V6.448H57.1833Z" fill="#FEFEFE"/>
<path d="M65.0574 11.168L62.7054 12.272C62.4174 12.0693 62.2201 11.792 62.1134 11.44C61.7294 11.6747 61.3401 11.8667 60.9454 12.016C60.5614 12.1653 60.2254 12.24 59.9374 12.24C59.5001 12.24 59.1427 12.0853 58.8654 11.776C58.5881 11.4667 58.4494 11.072 58.4494 10.592C58.4494 10.3787 58.4707 10.1493 58.5134 9.904C58.5667 9.648 58.6307 9.44533 58.7054 9.296L62.0974 8.752L62.1294 8.288C62.1507 7.808 62.0494 7.43467 61.8254 7.168C61.6014 6.89067 61.2387 6.752 60.7374 6.752C60.5134 6.752 60.2787 6.77867 60.0334 6.832C59.7881 6.87467 59.5801 6.93333 59.4094 7.008L59.1534 7.552L58.7214 7.392L59.4574 5.088C60.2787 4.736 61.0574 4.56 61.7934 4.56C62.5507 4.56 63.1694 4.76267 63.6494 5.168C64.1294 5.56267 64.3694 6.18667 64.3694 7.04L64.3534 7.36L64.1934 9.52L64.1614 10.096C64.1614 10.288 64.1774 10.4427 64.2094 10.56C64.2414 10.6667 64.2947 10.7787 64.3694 10.896L64.8654 10.704L65.0574 11.168ZM61.4254 11.088C61.5961 11.088 61.7934 11.024 62.0174 10.896L62.0014 10.56L62.0174 10.208L62.0654 9.296L60.8334 9.584C60.7907 9.72267 60.7694 9.90933 60.7694 10.144C60.7694 10.464 60.8334 10.704 60.9614 10.864C61.0894 11.0133 61.2441 11.088 61.4254 11.088Z" fill="#FEFEFE"/>
<path d="M69.0889 6.992L69.0249 11.488L70.4489 11.536V12H66.1769V11.536L66.7689 11.488L66.7209 5.76L66.1129 5.904L65.9529 5.424L68.4809 4.64L69.0249 6.352C69.3769 5.63733 69.7609 5.08267 70.1769 4.688C70.4116 4.60267 70.6942 4.56 71.0249 4.56C71.4729 4.56 71.8942 4.64 72.2889 4.8L71.7769 6.88C71.4676 6.816 71.0729 6.75733 70.5929 6.704C70.1129 6.65067 69.7182 6.61333 69.4089 6.592L69.0889 6.992Z" fill="#FEFEFE"/>
<path d="M81.0505 10.896L78.7145 12.16C78.4265 11.9893 78.2132 11.7653 78.0745 11.488C77.9465 11.2 77.8718 10.832 77.8505 10.384L76.2665 12.24C75.6478 12.24 75.0985 12.1013 74.6185 11.824C74.1492 11.536 73.7812 11.1467 73.5145 10.656C73.2478 10.1547 73.1145 9.58933 73.1145 8.96C73.1145 8.416 73.2052 7.84 73.3865 7.232C73.5678 6.624 73.7865 6.14933 74.0425 5.808C74.2452 5.52 74.6132 5.24267 75.1465 4.976C75.6798 4.69867 76.1278 4.56 76.4905 4.56C76.8105 4.56 77.2478 4.61333 77.8025 4.72L77.7705 1.904L77.1625 2.032L77.0025 1.568L79.9625 0.672001L80.1865 1.056L80.0905 9.344C80.0905 9.728 80.1118 10.016 80.1545 10.208C80.1972 10.3893 80.2718 10.5493 80.3785 10.688L80.8585 10.464L81.0505 10.896ZM75.4185 8C75.4185 8.49067 75.4985 8.91733 75.6585 9.28C75.8185 9.64267 76.0265 9.92 76.2825 10.112C76.5492 10.304 76.8318 10.4 77.1305 10.4L77.8505 9.68L77.8185 6.448C77.1252 6.11733 76.4585 5.89333 75.8185 5.776C75.5518 6.384 75.4185 7.12533 75.4185 8Z" fill="#FEFEFE"/>
<path d="M85.9699 4.56C86.9086 4.56 87.6446 4.90133 88.1779 5.584C88.7219 6.256 88.9886 7.168 88.9779 8.32L84.5619 8.464C84.6366 9.09333 84.8552 9.57333 85.2179 9.904C85.5806 10.2347 86.0606 10.4 86.6579 10.4C87.4899 10.4 88.1672 10.1707 88.6899 9.712L88.9779 9.968C88.6046 10.6827 88.0979 11.2427 87.4579 11.648C86.8286 12.0427 86.1566 12.24 85.4419 12.24C84.4712 12.24 83.6979 11.92 83.1219 11.28C82.5566 10.6293 82.2739 9.75467 82.2739 8.656C82.2739 8.00533 82.4019 7.36 82.6579 6.72C82.9246 6.08 83.2606 5.54667 83.6659 5.12C83.9432 4.96 84.3006 4.82667 84.7379 4.72C85.1752 4.61333 85.5859 4.56 85.9699 4.56ZM86.6099 7.792C86.5992 7.04533 86.4926 6.45333 86.2899 6.016C86.0872 5.57867 85.7992 5.31733 85.4259 5.232C85.1592 5.50933 84.9406 5.89867 84.7699 6.4C84.6099 6.89067 84.5299 7.39733 84.5299 7.92V7.968L86.6099 7.792Z" fill="#FEFEFE"/>
<path d="M97.9924 11.536V12H94.5684V11.536L95.1604 11.488V8.112C95.1604 7.64267 95.0271 7.28 94.7604 7.024C94.5044 6.768 94.1471 6.63467 93.6884 6.624L93.1764 7.152L93.1124 11.488L93.7044 11.536V12H90.2644V11.536L90.8564 11.488L90.8084 5.76L90.2004 5.904L90.0404 5.424L92.5684 4.64L93.1284 6.432L94.4564 4.528C95.4697 4.528 96.2164 4.768 96.6964 5.248C97.1764 5.728 97.4164 6.46933 97.4164 7.472V11.488L97.9924 11.536Z" fill="#FEFEFE"/>
</svg>
