<svg width="158" height="19" viewBox="0 0 158 19" fill="none" xmlns="http://www.w3.org/2000/svg">
<path d="M10.7557 5.77841C10.6989 5.15341 10.446 4.66762 9.99715 4.32103C9.55397 3.96876 8.92045 3.79262 8.09659 3.79262C7.55113 3.79262 7.09659 3.86364 6.73295 4.00569C6.36931 4.14773 6.09659 4.34376 5.91477 4.59376C5.73295 4.83807 5.6392 5.11932 5.63352 5.43751C5.62215 5.69887 5.67329 5.92898 5.78693 6.12785C5.90624 6.32671 6.0767 6.50285 6.29829 6.65626C6.52556 6.80398 6.79829 6.93467 7.11647 7.0483C7.43465 7.16194 7.79261 7.26137 8.19034 7.3466L9.69034 7.68751C10.554 7.87501 11.3153 8.12501 11.9744 8.43751C12.6392 8.75001 13.196 9.12217 13.6449 9.55398C14.0994 9.9858 14.4432 10.483 14.6761 11.0455C14.9091 11.608 15.0284 12.2386 15.0341 12.9375C15.0284 14.0398 14.75 14.9858 14.1989 15.7756C13.6477 16.5653 12.8551 17.1705 11.821 17.5909C10.7926 18.0114 9.55113 18.2216 8.09659 18.2216C6.63636 18.2216 5.36363 18.0028 4.2784 17.5653C3.19318 17.1278 2.34943 16.4631 1.74715 15.571C1.14488 14.679 0.835222 13.5511 0.818176 12.1875H4.85795C4.89204 12.75 5.04261 13.2188 5.30965 13.5938C5.5767 13.9688 5.94318 14.2528 6.40909 14.446C6.88068 14.6392 7.42613 14.7358 8.04545 14.7358C8.61363 14.7358 9.09659 14.6591 9.49431 14.5057C9.89772 14.3523 10.2074 14.1392 10.4233 13.8665C10.6392 13.5938 10.75 13.2813 10.7557 12.929C10.75 12.5994 10.6477 12.3182 10.4489 12.0852C10.25 11.8466 9.94318 11.6421 9.5284 11.4716C9.11931 11.2955 8.59659 11.1335 7.96022 10.9858L6.13636 10.5597C4.62499 10.2131 3.43465 9.65341 2.56534 8.88069C1.69602 8.10228 1.2642 7.05114 1.26988 5.72728C1.2642 4.64773 1.55397 3.70171 2.1392 2.88921C2.72443 2.07671 3.53409 1.44319 4.56818 0.988643C5.60227 0.534097 6.78124 0.306824 8.10511 0.306824C9.45738 0.306824 10.6307 0.536937 11.625 0.997164C12.625 1.45171 13.4006 2.09092 13.9517 2.91478C14.5028 3.73864 14.7841 4.69319 14.7955 5.77841H10.7557Z" fill="#FEFEFE"/>
<path d="M17.1648 18V4.9091H21.1278V7.31251H21.2727C21.5454 6.51705 22.0057 5.88921 22.6534 5.42898C23.3011 4.96876 24.0739 4.73864 24.9716 4.73864C25.8807 4.73864 26.6591 4.9716 27.3068 5.43751C27.9545 5.90342 28.3665 6.52842 28.5426 7.31251H28.679C28.9233 6.5341 29.4006 5.91194 30.1108 5.44603C30.821 4.97444 31.6591 4.73864 32.625 4.73864C33.8636 4.73864 34.8693 5.13637 35.642 5.93182C36.4148 6.7216 36.8011 7.80682 36.8011 9.18751V18H32.6335V10.1421C32.6335 9.48864 32.4659 8.99148 32.1307 8.65057C31.7954 8.30398 31.3608 8.13069 30.8267 8.13069C30.2528 8.13069 29.8011 8.31819 29.4716 8.69319C29.1477 9.06251 28.9858 9.55966 28.9858 10.1847V18H24.9801V10.0994C24.9801 9.49148 24.8153 9.01137 24.4858 8.6591C24.1562 8.30682 23.7216 8.13069 23.1818 8.13069C22.8182 8.13069 22.4972 8.21876 22.2187 8.39489C21.9403 8.56535 21.7216 8.80967 21.5625 9.12785C21.4091 9.44603 21.3324 9.82103 21.3324 10.2528V18H17.1648Z" fill="#FEFEFE"/>
<path d="M43.0739 18.2216C42.2386 18.2216 41.4972 18.0824 40.8494 17.804C40.2074 17.5199 39.6989 17.0938 39.3239 16.5256C38.9545 15.9517 38.7699 15.233 38.7699 14.3693C38.7699 13.6421 38.8977 13.0284 39.1534 12.5284C39.4091 12.0284 39.7614 11.6222 40.2102 11.3097C40.6591 10.9972 41.1761 10.7614 41.7614 10.6023C42.3466 10.4375 42.9716 10.3267 43.6364 10.2699C44.3807 10.2017 44.9801 10.1307 45.4347 10.0568C45.8892 9.97728 46.2187 9.86648 46.4233 9.72444C46.6335 9.57671 46.7386 9.36932 46.7386 9.10228V9.05966C46.7386 8.62216 46.5881 8.2841 46.2869 8.04546C45.9858 7.80682 45.5795 7.68751 45.0682 7.68751C44.517 7.68751 44.0739 7.80682 43.7386 8.04546C43.4034 8.2841 43.1903 8.61364 43.0994 9.0341L39.2557 8.89773C39.3693 8.10228 39.6619 7.39205 40.1335 6.76705C40.6108 6.13637 41.2642 5.64205 42.0937 5.2841C42.929 4.92046 43.9318 4.73864 45.1023 4.73864C45.9375 4.73864 46.7074 4.83807 47.4119 5.03694C48.1165 5.23012 48.7301 5.51421 49.2528 5.88921C49.7756 6.25853 50.179 6.71307 50.4631 7.25285C50.7528 7.79262 50.8977 8.4091 50.8977 9.10228V18H46.9773V16.1761H46.875C46.642 16.6193 46.3437 16.9943 45.9801 17.3011C45.6222 17.608 45.1989 17.8381 44.7102 17.9915C44.2273 18.1449 43.6818 18.2216 43.0739 18.2216ZM44.3608 15.4943C44.8097 15.4943 45.2131 15.4034 45.571 15.2216C45.9347 15.0398 46.2244 14.7898 46.4403 14.4716C46.6562 14.1477 46.7642 13.7727 46.7642 13.3466V12.1023C46.6449 12.1648 46.5 12.2216 46.3295 12.2727C46.1648 12.3239 45.9829 12.3722 45.7841 12.4176C45.5852 12.4631 45.3807 12.5028 45.1704 12.5369C44.9602 12.571 44.7585 12.6023 44.5653 12.6307C44.1733 12.6932 43.8381 12.7898 43.5597 12.9205C43.2869 13.0511 43.0767 13.2216 42.929 13.4318C42.7869 13.6364 42.7159 13.8807 42.7159 14.1648C42.7159 14.5966 42.8693 14.9261 43.1761 15.1534C43.4886 15.3807 43.8835 15.4943 44.3608 15.4943Z" fill="#FEFEFE"/>
<path d="M53.446 18V4.9091H57.4943V7.29546H57.6307C57.8693 6.43182 58.2585 5.78978 58.7983 5.36932C59.3381 4.94319 59.9659 4.73012 60.6818 4.73012C60.875 4.73012 61.0739 4.74432 61.2784 4.77273C61.4829 4.79546 61.6733 4.83239 61.8494 4.88353V8.50569C61.6506 8.43751 61.3892 8.38353 61.0653 8.34376C60.7472 8.30398 60.4631 8.2841 60.2131 8.2841C59.7187 8.2841 59.2727 8.39489 58.875 8.61648C58.483 8.83239 58.1733 9.13637 57.946 9.52841C57.7244 9.91478 57.6136 10.3693 57.6136 10.8921V18H53.446Z" fill="#FEFEFE"/>
<path d="M71.5462 4.9091V7.97728H63.2876V4.9091H71.5462ZM65.0178 1.77273H69.1854V13.8835C69.1854 14.1392 69.2251 14.3466 69.3047 14.5057C69.3899 14.6591 69.5121 14.7699 69.6712 14.8381C69.8302 14.9006 70.0206 14.9318 70.2422 14.9318C70.4013 14.9318 70.5689 14.9176 70.745 14.8892C70.9268 14.8551 71.0632 14.8267 71.1541 14.804L71.7848 17.8125C71.5859 17.8693 71.3047 17.9403 70.941 18.0256C70.5831 18.1108 70.1541 18.1648 69.6541 18.1875C68.6768 18.233 67.8388 18.1193 67.1399 17.8466C66.4467 17.5682 65.9155 17.1364 65.5462 16.5511C65.1825 15.9659 65.0064 15.2301 65.0178 14.3438V1.77273Z" fill="#FEFEFE"/>
<path d="M85.1271 6.24716C85.0305 5.88921 84.8885 5.57387 84.701 5.30114C84.5135 5.02273 84.2834 4.78694 84.0107 4.59376C83.7379 4.40057 83.4254 4.25569 83.0732 4.1591C82.7209 4.05682 82.3345 4.00569 81.9141 4.00569C81.0675 4.00569 80.3345 4.21023 79.7152 4.61932C79.1016 5.02841 78.6271 5.62501 78.2919 6.4091C77.9567 7.18751 77.7891 8.13353 77.7891 9.24716C77.7891 10.3665 77.951 11.321 78.2748 12.1108C78.5987 12.9006 79.0675 13.5028 79.6811 13.9176C80.2947 14.3324 81.0391 14.5398 81.9141 14.5398C82.6868 14.5398 83.3402 14.4148 83.8743 14.1648C84.4141 13.9091 84.8231 13.5483 85.1016 13.0824C85.38 12.6165 85.5192 12.0682 85.5192 11.4375L86.3033 11.5313H82.0589V8.45455H89.5845V10.7642C89.5845 12.3267 89.2521 13.6648 88.5874 14.7784C87.9283 15.8921 87.0192 16.7472 85.8601 17.3438C84.7067 17.9403 83.38 18.2386 81.88 18.2386C80.2152 18.2386 78.7521 17.8778 77.4908 17.1563C76.2294 16.4347 75.2464 15.4063 74.5419 14.071C73.8374 12.7301 73.4851 11.1392 73.4851 9.2983C73.4851 7.86648 73.6981 6.5966 74.1243 5.48864C74.5504 4.37501 75.1442 3.43182 75.9055 2.6591C76.6726 1.88637 77.5589 1.30114 78.5646 0.903414C79.576 0.505687 80.6641 0.306824 81.8288 0.306824C82.8402 0.306824 83.7805 0.45171 84.6499 0.741483C85.5249 1.03126 86.2976 1.44035 86.968 1.96876C87.6442 2.49717 88.1925 3.12501 88.6129 3.85228C89.0334 4.57955 89.2947 5.37785 89.397 6.24716H85.1271Z" fill="#FEFEFE"/>
<path d="M95.7614 18.2216C94.9261 18.2216 94.1847 18.0824 93.5369 17.804C92.8949 17.5199 92.3864 17.0938 92.0114 16.5256C91.642 15.9517 91.4574 15.233 91.4574 14.3693C91.4574 13.6421 91.5852 13.0284 91.8409 12.5284C92.0966 12.0284 92.4489 11.6222 92.8977 11.3097C93.3466 10.9972 93.8636 10.7614 94.4489 10.6023C95.0341 10.4375 95.6591 10.3267 96.3239 10.2699C97.0682 10.2017 97.6676 10.1307 98.1222 10.0568C98.5767 9.97728 98.9062 9.86648 99.1108 9.72444C99.321 9.57671 99.4261 9.36932 99.4261 9.10228V9.05966C99.4261 8.62216 99.2756 8.2841 98.9744 8.04546C98.6733 7.80682 98.267 7.68751 97.7557 7.68751C97.2045 7.68751 96.7614 7.80682 96.4261 8.04546C96.0909 8.2841 95.8778 8.61364 95.7869 9.0341L91.9432 8.89773C92.0568 8.10228 92.3494 7.39205 92.821 6.76705C93.2983 6.13637 93.9517 5.64205 94.7812 5.2841C95.6165 4.92046 96.6193 4.73864 97.7898 4.73864C98.625 4.73864 99.3949 4.83807 100.099 5.03694C100.804 5.23012 101.418 5.51421 101.94 5.88921C102.463 6.25853 102.866 6.71307 103.151 7.25285C103.44 7.79262 103.585 8.4091 103.585 9.10228V18H99.6648V16.1761H99.5625C99.3295 16.6193 99.0312 16.9943 98.6676 17.3011C98.3097 17.608 97.8864 17.8381 97.3977 17.9915C96.9148 18.1449 96.3693 18.2216 95.7614 18.2216ZM97.0483 15.4943C97.4972 15.4943 97.9006 15.4034 98.2585 15.2216C98.6222 15.0398 98.9119 14.7898 99.1278 14.4716C99.3437 14.1477 99.4517 13.7727 99.4517 13.3466V12.1023C99.3324 12.1648 99.1875 12.2216 99.017 12.2727C98.8523 12.3239 98.6705 12.3722 98.4716 12.4176C98.2727 12.4631 98.0682 12.5028 97.8579 12.5369C97.6477 12.571 97.446 12.6023 97.2528 12.6307C96.8608 12.6932 96.5256 12.7898 96.2472 12.9205C95.9744 13.0511 95.7642 13.2216 95.6165 13.4318C95.4744 13.6364 95.4034 13.8807 95.4034 14.1648C95.4034 14.5966 95.5568 14.9261 95.8636 15.1534C96.1761 15.3807 96.571 15.4943 97.0483 15.4943Z" fill="#FEFEFE"/>
<path d="M106.134 18V4.9091H110.182V7.29546H110.318C110.557 6.43182 110.946 5.78978 111.486 5.36932C112.026 4.94319 112.653 4.73012 113.369 4.73012C113.562 4.73012 113.761 4.74432 113.966 4.77273C114.17 4.79546 114.361 4.83239 114.537 4.88353V8.50569C114.338 8.43751 114.077 8.38353 113.753 8.34376C113.435 8.30398 113.151 8.2841 112.901 8.2841C112.406 8.2841 111.96 8.39489 111.562 8.61648C111.17 8.83239 110.861 9.13637 110.634 9.52841C110.412 9.91478 110.301 10.3693 110.301 10.8921V18H106.134Z" fill="#FEFEFE"/>
<path d="M120.337 18.1875C119.371 18.1875 118.493 17.9375 117.703 17.4375C116.913 16.9375 116.283 16.1875 115.811 15.1875C115.339 14.1875 115.104 12.946 115.104 11.4631C115.104 9.9233 115.348 8.65626 115.837 7.66194C116.325 6.66762 116.964 5.93182 117.754 5.45455C118.55 4.97728 119.405 4.73864 120.32 4.73864C121.007 4.73864 121.595 4.85796 122.084 5.0966C122.572 5.32955 122.976 5.63069 123.294 6.00001C123.612 6.36932 123.854 6.75285 124.018 7.15057H124.104V0.54546H128.271V18H124.146V15.8778H124.018C123.842 16.2813 123.592 16.6591 123.268 17.0114C122.945 17.3636 122.538 17.6477 122.05 17.8636C121.567 18.0796 120.996 18.1875 120.337 18.1875ZM121.786 14.9403C122.291 14.9403 122.723 14.7983 123.081 14.5142C123.439 14.2244 123.714 13.8182 123.908 13.2955C124.101 12.7727 124.197 12.1591 124.197 11.4546C124.197 10.7386 124.101 10.1222 123.908 9.60512C123.72 9.08807 123.445 8.69035 123.081 8.41194C122.723 8.13353 122.291 7.99432 121.786 7.99432C121.268 7.99432 120.831 8.13637 120.473 8.42046C120.115 8.70455 119.842 9.10512 119.655 9.62216C119.473 10.1392 119.382 10.75 119.382 11.4546C119.382 12.1591 119.476 12.7727 119.663 13.2955C119.851 13.8182 120.121 14.2244 120.473 14.5142C120.831 14.7983 121.268 14.9403 121.786 14.9403Z" fill="#FEFEFE"/>
<path d="M137.026 18.2472C135.657 18.2472 134.475 17.9773 133.481 17.4375C132.492 16.8921 131.731 16.1165 131.197 15.1108C130.668 14.0994 130.404 12.8977 130.404 11.5057C130.404 10.1534 130.671 8.9716 131.205 7.96023C131.739 6.94319 132.492 6.15341 133.464 5.59091C134.435 5.02273 135.58 4.73864 136.898 4.73864C137.83 4.73864 138.683 4.88353 139.455 5.1733C140.228 5.46307 140.896 5.89205 141.458 6.46023C142.021 7.02842 142.458 7.73012 142.771 8.56535C143.083 9.39489 143.239 10.3466 143.239 11.4205V12.4602H131.861V10.0398H139.361C139.356 9.5966 139.251 9.20171 139.046 8.85512C138.842 8.50853 138.56 8.23864 138.202 8.04546C137.85 7.8466 137.444 7.74716 136.984 7.74716C136.518 7.74716 136.1 7.85228 135.731 8.06251C135.362 8.26705 135.069 8.5483 134.853 8.90626C134.637 9.25853 134.523 9.6591 134.512 10.108V12.571C134.512 13.1051 134.617 13.5739 134.827 13.9773C135.038 14.375 135.336 14.6847 135.722 14.9063C136.109 15.1278 136.569 15.2386 137.103 15.2386C137.472 15.2386 137.808 15.1875 138.109 15.0852C138.41 14.983 138.668 14.8324 138.884 14.6335C139.1 14.4347 139.262 14.1903 139.37 13.9006L143.197 14.0114C143.038 14.8693 142.688 15.6165 142.148 16.2528C141.614 16.8835 140.913 17.375 140.043 17.7273C139.174 18.0739 138.168 18.2472 137.026 18.2472Z" fill="#FEFEFE"/>
<path d="M149.536 10.5341V18H145.368V4.9091H149.331V7.31251H149.476C149.766 6.51137 150.26 5.88353 150.959 5.42898C151.658 4.96876 152.49 4.73864 153.456 4.73864C154.376 4.73864 155.175 4.94603 155.851 5.3608C156.533 5.76989 157.061 6.34376 157.436 7.08239C157.817 7.81535 158.004 8.6733 157.999 9.65626V18H153.831V10.4744C153.837 9.74716 153.652 9.17898 153.277 8.76989C152.908 8.3608 152.393 8.15626 151.734 8.15626C151.297 8.15626 150.91 8.25285 150.575 8.44603C150.246 8.63353 149.99 8.90341 149.808 9.25569C149.632 9.60796 149.541 10.0341 149.536 10.5341Z" fill="#FEFEFE"/>
</svg>
